<svg xmlns="http://www.w3.org/2000/svg" width="89" height="22" viewBox="0 3.3 88.35 21.41" fill="none">
<path d="M23.2776 3.3064H18.246L3.49561 14.3606V3.3064H0V24.7091H3.49561V18.1886L9.85506 13.4401L19.9901 24.7091H24.4617L12.5108 11.388L23.2738 3.31023H23.2776V3.3064Z" fill="#fff"/>
<path d="M55.3472 3.3064H50.3156L35.4971 14.3606V3.3064H32.0015V24.7091H35.4971V18.1886L41.8565 13.4401L51.9915 24.7091H56.5351L44.5842 11.388L55.3472 3.31023V3.3064Z" fill="#fff"/>
<path d="M82.6804 16.3475C85.8241 15.8489 88.1318 13.7968 88.1318 10.0379C88.1318 5.92612 85.4761 3.3064 81.0006 3.3064H64.3662V24.7091H67.8618V16.5623H78.5567L84.2882 24.7091H88.3437L82.6804 16.3475ZM67.9337 13.2982V6.49379H80.2327C83.1684 6.49379 84.6362 7.62914 84.6362 10.0379C84.6362 12.1628 83.2365 13.2982 80.5807 13.2982H67.9299H67.9337Z" fill="#fff"/>
</svg>
